<svg id="Line" height="512" viewBox="0 0 64 64" width="512" xmlns="http://www.w3.org/2000/svg"><path d="m55.5 46.5v4a2 2 0 0 1 -2 2h-4a2 2 0 0 1 -2-2v-4a2 2 0 0 1 2-2h4a2 2 0 0 1 2 2zm-21-3h-8a1 1 0 0 0 -1 1v8a1 1 0 0 0 1 1h8a1 1 0 0 0 1-1v-8a1 1 0 0 0 -1-1zm13-11h8a1 1 0 0 0 1-1v-8a1 1 0 0 0 -1-1h-8a1 1 0 0 0 -1 1v8a1 1 0 0 0 1 1zm-19-1h4a2 2 0 0 0 2-2v-4a2 2 0 0 0 -2-2h-4a2 2 0 0 0 -2 2v4a2 2 0 0 0 2 2zm34.5-12.5v38a3 3 0 0 1 -3 3h-38a3 3 0 0 1 -3-3v-38a3 3 0 0 1 3-3h38a3 3 0 0 1 3 3zm-18.5 12.5a3 3 0 0 0 3 3h8a3 3 0 0 0 3-3v-8a3 3 0 0 0 -3-3h-8a3 3 0 0 0 -3 3zm-21 0a3 3 0 0 0 3 3h8a3 3 0 0 0 3-3v-8a3 3 0 0 0 -3-3h-8a3 3 0 0 0 -3 3zm14 13a3 3 0 0 0 -3-3h-8a3 3 0 0 0 -3 3v8a3 3 0 0 0 3 3h8a3 3 0 0 0 3-3zm21 0a3 3 0 0 0 -3-3h-8a3 3 0 0 0 -3 3v8a3 3 0 0 0 3 3h8a3 3 0 0 0 3-3zm1.5-6.5a1 1 0 0 0 -1-1h-17v-17a1 1 0 0 0 -2 0v17h-17a1 1 0 0 0 0 2h17v17a1 1 0 0 0 2 0v-17h17a1 1 0 0 0 1-1z" fill="#c4a2fc"/><path d="m48 4h-44a3 3 0 0 0 -3 3v32a3 3 0 0 0 3 3h44a3 3 0 0 0 3-3v-32a3 3 0 0 0 -3-3zm1 35a1 1 0 0 1 -1 1h-44a1 1 0 0 1 -1-1v-32a1 1 0 0 1 1-1h44a1 1 0 0 1 1 1zm-40-28v18a1 1 0 0 1 -2 0v-18a1 1 0 0 1 2 0zm12 0v18a1 1 0 0 1 -2 0v-18a1 1 0 0 1 2 0zm6 0v18a1 1 0 0 1 -2 0v-18a1 1 0 0 1 2 0zm6 0v18a1 1 0 0 1 -2 0v-18a1 1 0 0 1 2 0zm-18 0v21a1 1 0 0 1 -2 0v-21a1 1 0 0 1 2 0zm30 0v18a1 1 0 0 1 -2 0v-18a1 1 0 0 1 2 0zm-6 0v21a1 1 0 0 1 -2 0v-21a1 1 0 0 1 2 0z" fill="#151a6a"/></svg>