<svg height="512pt" viewBox="0 -84 512 512" width="512pt" xmlns="http://www.w3.org/2000/svg"><path d="m130.46875 99.097656v238.132813h251.0625v-238.132813c-83.6875-59.375-167.375-59.375-251.0625 0zm0 0" fill="#5692d8"/><path d="m154.46875 83.703125c-8 4.589844-16 9.71875-24 15.394531v238.132813h24zm0 0" fill="#3165a3"/><path d="m130.46875 99.097656v117.441406h251.0625v-117.441406c-83.6875-59.375-167.375-59.375-251.0625 0zm0 0" fill="#c8e7f7"/><path d="m154.46875 83.703125c-1.882812 1.078125-3.765625 2.195313-5.648438 3.335937-.265624.164063-.535156.328126-.804687.488282-1.84375 1.125-3.6875 2.273437-5.53125 3.457031-.003906.003906-.011719.007813-.019531.011719-1.808594 1.160156-3.617188 2.355468-5.425782 3.574218-.398437.265626-.796874.539063-1.195312.808594-1.792969 1.214844-3.582031 2.449219-5.375 3.71875v117.441406h24zm0 0" fill="#8cbcd6"/><path d="m195.296875 64.980469v48.242187c0 12.328125 9.992187 22.320313 22.320313 22.320313h100.765624c12.328126 0 22.320313-9.992188 22.320313-22.320313v-38.382812c-48.46875-23.203125-96.9375-26.488282-145.40625-9.859375zm0 0" fill="#8cbcd6"/><path d="m177.984375 31.449219v67.609375c0 13.226562 10.722656 23.953125 23.949219 23.953125h108.132812c13.226563 0 23.953125-10.726563 23.953125-23.953125v-67.609375c0-13.226563-10.726562-23.949219-23.953125-23.949219h-108.132812c-13.226563 0-23.949219 10.722656-23.949219 23.949219zm0 0" fill="#ffeb96"/><path d="m381.53125 92.839844v244.390625h33.050781v-244.390625c0-3.976563-3.222656-7.199219-7.199219-7.199219h-18.65625c-3.972656 0-7.195312 3.222656-7.195312 7.199219zm0 0" fill="#f9aa4b"/><path d="m97.417969 92.839844v244.390625h33.050781v-244.390625c0-3.976563-3.222656-7.199219-7.195312-7.199219h-18.660157c-3.972656 0-7.195312 3.222656-7.195312 7.199219zm0 0" fill="#f9aa4b"/><path d="m414.582031 119.074219v218.15625h77.75c6.722657 0 12.167969-5.445313 12.167969-12.167969v-194.265625c0-6.476563-5.246094-11.722656-11.71875-11.722656zm0 0" fill="#5692d8"/><path d="m414.582031 119.074219h24v218.15625h-24zm0 0" fill="#3165a3"/><path d="m414.582031 166.3125h89.917969v111.617188h-89.917969zm0 0" fill="#c8e7f7"/><path d="m414.582031 166.3125h24v111.617188h-24zm0 0" fill="#8cbcd6"/><path d="m7.5 130.796875v194.265625c0 6.722656 5.445312 12.167969 12.167969 12.167969h77.75v-218.15625h-78.199219c-6.472656 0-11.71875 5.246093-11.71875 11.722656zm0 0" fill="#5692d8"/><path d="m7.5 166.3125h89.917969v111.617188h-89.917969zm0 0" fill="#c8e7f7"/><path d="m202.453125 260.265625v76.964844h107.09375v-76.964844c0-3.574219-2.894531-6.46875-6.46875-6.46875h-94.152344c-3.574219 0-6.472656 2.894531-6.472656 6.46875zm0 0" fill="#c8e7f7"/><path d="m295 75.160156 12.148438-32.164062c1.308593-3.460938.835937-7.34375-1.269532-10.386719-2.101562-3.042969-5.566406-4.859375-9.265625-4.859375h-44.957031c-4.144531 0-7.5 3.355469-7.5 7.5 0 4.140625 3.355469 7.5 7.5 7.5h39.550781l-10.242187 27.109375c-.285156.761719-1.027344 1.273437-1.839844 1.273437h-36.792969c-.925781 0-1.734375-.65625-1.925781-1.566406l-7.820312-37.382812c-1.304688-6.230469-6.867188-10.746094-13.230469-10.746094h-7.738281c-4.140626 0-7.5 3.355469-7.5 7.5 0 4.140625 3.359374 7.5 7.5 7.5h6.53125l7.574218 36.203125c1.636719 7.816406 8.621094 13.492187 16.605469 13.492187h36.796875c7.015625 0 13.394531-4.410156 15.875-10.972656zm0 0"/><path d="m241.75 94.070312c-4.144531 0-7.5 3.359376-7.5 7.5 0 4.144532 3.355469 7.5 7.5 7.5h1.652344c4.140625 0 7.5-3.355468 7.5-7.5 0-4.140624-3.359375-7.5-7.5-7.5zm0 0"/><path d="m273.945312 94.070312c-4.140624 0-7.5 3.359376-7.5 7.5 0 4.144532 3.359376 7.5 7.5 7.5h1.652344c4.140625 0 7.5-3.355468 7.5-7.5 0-4.140624-3.359375-7.5-7.5-7.5zm0 0"/><path d="m492.78125 111.574219h-11.066406c-4.140625 0-7.5 3.359375-7.5 7.5 0 4.144531 3.359375 7.5 7.5 7.5h11.066406c2.324219 0 4.21875 1.894531 4.21875 4.222656v28.015625h-74.917969v-32.238281h29.632813c4.140625 0 7.5-3.355469 7.5-7.5 0-4.140625-3.359375-7.5-7.5-7.5h-29.632813v-18.734375c0-8.105469-6.59375-14.699219-14.695312-14.699219h-18.660157c-5.65625 0-10.574218 3.210937-13.03125 7.910156-11.355468-7.414062-22.800781-13.820312-34.175781-19.117187v-35.480469c0-17.34375-14.109375-31.453125-31.453125-31.453125h-39.066406c-4.140625 0-7.5 3.355469-7.5 7.5s3.359375 7.5 7.5 7.5h39.066406c9.070313 0 16.449219 7.382812 16.449219 16.453125v67.605469c0 9.070312-7.378906 16.453125-16.449219 16.453125-.101562 0-101.210937-.007813-108.132812 0-9.070313 0-16.453125-7.382813-16.453125-16.453125v-67.605469c0-9.070313 7.382812-16.453125 16.453125-16.453125h39.066406c4.140625 0 7.5-3.355469 7.5-7.5s-3.359375-7.5-7.5-7.5h-39.066406c-17.339844 0-31.449219 14.109375-31.449219 31.453125v35.480469c-11.378906 5.296875-22.820313 11.703125-34.179687 19.117187-2.453126-4.699219-7.375-7.910156-13.03125-7.910156h-18.65625c-8.105469 0-14.699219 6.59375-14.699219 14.699219v18.734375h-29.632813c-4.140625 0-7.5 3.359375-7.5 7.5 0 4.144531 3.359375 7.5 7.5 7.5h29.632813v32.238281h-74.917969v-28.015625c0-2.328125 1.894531-4.222656 4.21875-4.222656h11.066406c4.140625 0 7.5-3.355469 7.5-7.5 0-4.140625-3.359375-7.5-7.5-7.5h-11.066406c-10.597656 0-19.21875 8.621093-19.21875 19.222656v194.269531c0 10.84375 8.824219 19.664063 19.667969 19.664063h472.664062c10.84375 0 19.667969-8.820313 19.667969-19.664063v-194.269531c0-10.601563-8.621094-19.222656-19.21875-19.222656zm-70.699219 158.855469v-21.953126h29.957031v21.953126zm29.957031-36.953126h-29.957031v-22.710937h29.957031zm15-22.710937h29.960938v22.710937h-29.960938zm0 37.710937h29.960938v21.953126h-29.960938zm29.960938-52.710937h-29.960938v-21.953125h29.960938zm-44.960938-21.953125v21.953125h-29.957031v-21.953125zm-148.960937 72.484375h-94.152344c-7.703125 0-13.972656 6.265625-13.972656 13.96875v69.464844h-56.984375v-105.683594h236.0625v105.683594h-56.984375v-69.464844c0-7.703125-6.265625-13.96875-13.96875-13.96875zm-89.339844-115.785156h84.523438v20.320312h-84.523438zm84.523438 35.320312v43.214844h-84.523438v-43.214844zm-99.523438 43.214844h-60.769531v-43.214844h60.769531zm142.777344-109.988281v-15.460938c10.828125 5.445313 21.71875 11.941406 32.515625 19.402344v47.832031h-15.914062c-4.140626 0-7.5 3.355469-7.5 7.5s3.359374 7.5 7.5 7.5h15.914062v43.214844h-60.769531v-43.214844h14.855469c4.140624 0 7.5-3.355469 7.5-7.5s-3.359376-7.5-7.5-7.5h-14.855469v-20.484375c15.84375-1.605468 28.253906-15.027344 28.253906-31.289062zm-142.777344 31.289062v20.484375h-60.769531v-47.835937c10.796875-7.457032 21.6875-13.953125 32.515625-19.398438v15.457032c0 16.265624 12.410156 29.6875 28.253906 31.292968zm-183.738281 140.082032v-21.953126h29.960938v21.953126zm74.917969-36.953126h-29.957031v-22.710937h29.957031zm-44.957031 0h-29.960938v-22.710937h29.960938zm15 15h29.957031v21.953126h-29.957031zm29.957031-52.710937h-29.957031v-21.953125h29.957031zm-44.957031-21.953125v21.953125h-29.960938v-21.953125zm-29.960938 151.25v-39.632812h74.917969v44.300781h-70.25c-2.574219 0-4.667969-2.09375-4.667969-4.667969zm89.917969-231.921875h18.050781v236.589844h-18.050781zm105.035156 168.15625h38.546875v68.433594h-38.546875zm53.546875 68.433594v-68.433594h38.546875v68.433594zm125.53125-236.589844h18.050781v236.589844h-18.050781zm103.300781 236.589844h-70.25v-44.300781h74.917969v39.632812c0 2.574219-2.09375 4.667969-4.667969 4.667969zm0 0"/><path d="m236.875 285.515625c-4.140625 0-7.5 3.355469-7.5 7.5v2.066406c0 4.140625 3.359375 7.5 7.5 7.5s7.5-3.359375 7.5-7.5v-2.066406c0-4.144531-3.359375-7.5-7.5-7.5zm0 0"/><path d="m275.125 285.515625c-4.140625 0-7.5 3.355469-7.5 7.5v2.066406c0 4.140625 3.359375 7.5 7.5 7.5s7.5-3.359375 7.5-7.5v-2.066406c0-4.144531-3.359375-7.5-7.5-7.5zm0 0"/></svg>